[Header]
FileType HTR
DataType HTRS
FileVersion 1
NumSegments 28
NumFrames 4
DataFrameRate 24
EulerRotationOrder ZYX
CalibrationUnits mm
RotationUnits Degrees
GlobalAxisofGravity Y
BoneLengthAxis Y
ScaleFactor 1.0
[SegmentNames&Hierarchy]
waist	GLOBAL
chest	waist
head	chest
joint2	chest
right_shoulder1	joint2
right_elbow1	right_shoulder1
right_wrist1	right_elbow1
right_hand1	right_wrist1
right_finger3	right_hand1
right_finger4	right_hand1
right_finger5	right_hand1
joint3	chest
right_shoulder2	joint3
right_elbow2	right_shoulder2
right_wrist2	right_elbow2
right_hand2	right_wrist2
right_finger6	right_hand2
right_finger7	right_hand2
right_finger8	right_hand2
Center_pelvis	waist
left_pelvs	Center_pelvis
left_leg	left_pelvs
left_knee	left_leg
left_foot	left_knee
right_pelvis	Center_pelvis
right_leg	right_pelvis
right_knee	right_leg
right_foot	right_knee
[BasePosition]
waist	0	0	0	179.9999991	0	91.33221985	1
chest	0	0	0	-2.307808268e-010	-1.984983424e-008	1.332219854	1
head	0	0	0	180	-1.481061187e-024	90	1
joint2	0	0	0	4.615476202e-010	-1.707085745e-006	90	1
right_shoulder1	0	0	0	1.916575325e-008	-1.983803253e-008	-88.02506599	1
right_elbow1	0	0	0	-180	-1.948815659e-008	-12.92899665	1
right_wrist1	0	0	0	3.256551172e-010	1.942478841e-008	1.920938916	1
right_hand1	0	0	0	136.2194085	85.17676588	-133.4832578	1
right_finger3	0	0	0	154.4596717	79.84057755	147.6247455	1
right_finger4	0	0	0	154.4596717	79.84057755	147.6247455	1
right_finger5	0	0	0	154.4596717	79.84057755	147.6247455	1
joint3	0	0	0	-180	-1.89575832e-022	90	1
right_shoulder2	0	0	0	6.774897105e-015	-7.012540931e-015	-88.02506599	1
right_elbow2	0	0	0	-180	-6.888863384e-015	-12.92899665	1
right_wrist2	0	0	0	-1.240805042e-012	-7.401196581e-011	1.920938916	1
right_hand2	0	0	0	136.2194085	85.17676588	-133.4832578	1
right_finger6	0	0	0	154.4596717	79.84057755	147.6247455	1
right_finger7	0	0	0	154.4596717	79.84057755	147.6247455	1
right_finger8	0	0	0	154.4596717	79.84057755	147.6247455	1
Center_pelvis	0	0	0	-180	-8.537716493e-007	89.87586122	1
left_pelvs	0	0	0	0	0	-1.456358634	1
left_leg	0	0	0	179.9999991	0	88.69804733	1
left_knee	0	0	0	-180	-7.863991589e-009	-2.076172838	1
left_foot	0	0	0	179.9999985	-3.055580289e-010	-90.77422016	1
right_pelvis	0	0	0	0	0	-2.39554958	1
right_leg	0	0	0	0	0	-87.75885638	1
right_knee	0	0	0	179.9999991	3.702652968e-022	-2.076172838	1
right_foot	0	0	0	180	-7.405305937e-025	-90.77422016	1
[waist]
1	0.2494212389	-3.152148962	0	8.818076202e-018	-2.880522013	2.995270497e-016	1.0
2	0.2494212389	-3.152148962	0	5.418893694e-018	-3.814000607	-4.44306765e-017	1.0
3	0.2494212389	-3.152148962	0	1.256329607e-017	-5.404103756	-1.988521943e-016	1.0
4	0.2494212389	-3.152148962	0	2.788417242e-017	-6.023812771	3.506016011e-016	1.0
[chest]
1	26.90063095	-5.105234635e-008	3.426064014	-0.6932841539	8.848189354	6.28683818e-018	1.0
2	26.90063095	-5.105234635e-008	3.426064014	1.555900455	8.855342865	-0.003159108572	1.0
3	26.90063095	-5.105234635e-008	3.426064014	6.603609085	8.873764038	-0.01129584853	1.0
4	26.90063095	-5.105234635e-008	3.426064014	11.90007496	8.898902893	-0.02239934355	1.0
[head]
1	20.2673378	-0.2169121802	-2.057697535	24.13926888	-17.93865395	-2.636302233	1.0
2	20.26534081	-0.2188701034	-2.048110485	24.02269363	-17.86264229	-2.62727499	1.0
3	20.26002693	-0.2240704894	-2.022645712	23.71306801	-17.66074562	-2.603298426	1.0
4	20.25243568	-0.2315032482	-1.986249804	23.27052498	-17.37218094	-2.569029093	1.0
[joint2]
1	-1.657010078	17.01290512	0.01287616603	-16.02950287	-7.862841606	2.006713035e-016	1.0
2	-1.657010078	17.01290512	0.01287616603	-16.26091385	-8.391215324	1.290132165	1.0
3	-1.657010078	17.01290512	0.01287616603	-16.78025627	-9.577010155	4.185497284	1.0
4	-1.657010078	17.01290512	0.01287616603	-17.3251915	-10.82124424	7.223549843	1.0
[right_shoulder1]
1	14.91590023	0.6211000085	0.9477797747	0	-3.348041534	0	1.0
2	14.91590023	0.6211000085	0.9477797747	0.0926682502	-3.300268173	-0.4874683619	1.0
3	14.91590023	0.6211000085	0.9477797747	0.3243069351	-3.183122635	-1.581463814	1.0
4	14.91590023	0.6211000085	0.9477797747	0.6253670454	-3.035866261	-2.729372978	1.0
[right_elbow1]
1	-13.64346027	1.083028078	-0.5017899871	0	34.53527451	0	1.0
2	-13.64346027	1.083028078	-0.5017899871	-0.9685814381	34.33877563	-1.758399129	1.0
3	-13.64346027	1.083028078	-0.5017899871	-3.142309904	33.89777374	-5.704667091	1.0
4	-13.64346027	1.083028078	-0.5017899871	-5.42316246	33.43504333	-9.845412254	1.0
[right_wrist1]
1	-11.07325459	0.004849368241	0.6145500541	0	9.926282883	0	1.0
2	-11.07325459	0.004849368241	0.6145500541	-0.2759523392	11.32071495	-1.307893157	1.0
3	-11.07325459	0.004849368241	0.6145500541	-0.8952554464	14.4501543	-4.243118286	1.0
4	-11.07325459	0.004849368241	0.6145500541	-1.545078635	17.73381805	-7.322994709	1.0
[right_hand1]
1	-8.785093307	0.04701882228	0.1882400364	22.67482567	25.64578247	27.07034111	1.0
2	-8.785093307	0.04701882228	0.1882400364	22.30879402	25.33508492	27.82733154	1.0
3	-8.785093307	0.04701882228	0.1882400364	21.48733521	24.63780403	29.52619553	1.0
4	-8.785093307	0.04701882228	0.1882400364	20.62539291	23.90616226	31.30878258	1.0
[right_finger3]
1	10.07661057	3.347557783	-1.489186764	-84.38749695	-7.884037018	85.68836975	1.0
2	10.07661057	3.347557783	-1.489186764	-84.38220215	-7.61646843	85.71633911	1.0
3	10.07661057	3.347557783	-1.489186764	-84.36856842	-6.927306652	85.78839111	1.0
4	10.07661057	3.347557783	-1.489186764	-84.3499527	-5.986867428	85.88670349	1.0
[right_finger4]
1	-1.201135993	3.376283169	11.27149582	-190.535553	16.07546425	123.4279099	1.0
2	-1.201135993	3.376283169	11.27149582	-190.5912018	16.0036068	123.1518631	1.0
3	-1.201135993	3.376283169	11.27149582	-190.7345123	15.81853294	122.4408722	1.0
4	-1.201135993	3.376283169	11.27149582	-190.9300995	15.56597805	121.4706497	1.0
[right_finger5]
1	-6.853637218	4.493112087	-5.936321735	32.61823273	12.25421333	66.99794006	1.0
2	-6.853637218	4.493112087	-5.936321735	32.62539673	12.09950542	67.22805023	1.0
3	-6.853637218	4.493112087	-5.936321735	32.6438446	11.70103645	67.82070923	1.0
4	-6.853637218	4.493112087	-5.936321735	32.66902161	11.15727997	68.62947083	1.0
[joint3]
1	-1.657010078	-17.01289368	0.01287565939	-61.42384338	12.19584846	8.134983305e-016	1.0
2	-1.657010078	-17.01289368	0.01287565939	-61.19878006	12.11264324	0.02364434116	1.0
3	-1.657010078	-17.01289368	0.01287565939	-60.61909485	11.89833736	0.08454374969	1.0
4	-1.657010078	-17.01289368	0.01287565939	-59.82804871	11.60589314	0.1676478386	1.0
[right_shoulder2]
1	-14.91590023	-0.6211000085	-0.9477797747	1.767448902	-23.93829155	-4.34898901	1.0
2	-14.91590023	-0.6211000085	-0.9477797747	1.775333166	-23.91942978	-4.394221306	1.0
3	-14.91590023	-0.6211000085	-0.9477797747	1.795639992	-23.87085152	-4.510723114	1.0
4	-14.91590023	-0.6211000085	-0.9477797747	1.823351026	-23.80455971	-4.66970253	1.0
[right_elbow2]
1	13.64346027	-1.083028078	0.5017899871	0	0	-25.62878418	1.0
2	13.64346027	-1.083028078	0.5017899871	0.02078698762	0.100190945	-25.54193497	1.0
3	13.64346027	-1.083028078	0.5017899871	0.07432687283	0.3582471609	-25.3182373	1.0
4	13.64346027	-1.083028078	0.5017899871	0.1473880559	0.710393846	-25.01297951	1.0
[right_wrist2]
1	11.07325459	-0.004849368241	-0.6145500541	0	0	-22.95478058	1.0
2	11.07325459	-0.004849368241	-0.6145500541	-4.034665255e-018	0.06800279766	-22.95478058	1.0
3	11.07325459	-0.004849368241	-0.6145500541	-1.483932571e-017	0.2431538105	-22.95478058	1.0
4	11.07325459	-0.004849368241	-0.6145500541	-3.046497924e-017	0.4821670055	-22.95478058	1.0
[right_hand2]
1	8.785093307	-0.04701882228	-0.1882400364	19.0906105	28.19851494	13.37615108	1.0
2	8.785093307	-0.04701882228	-0.1882400364	19.02019119	28.16993141	13.45668793	1.0
3	8.785093307	-0.04701882228	-0.1882400364	18.83881187	28.09631348	13.66411972	1.0
4	8.785093307	-0.04701882228	-0.1882400364	18.59130287	27.99585152	13.94718552	1.0
[right_finger6]
1	-10.07661057	-3.347557783	1.489186764	-83.58911896	29.81753159	89.65844727	1.0
2	-10.07661057	-3.347557783	1.489186764	-83.59320831	29.46526146	89.62152863	1.0
3	-10.07661057	-3.347557783	1.489186764	-83.60375214	28.55794144	89.52645874	1.0
4	-10.07661057	-3.347557783	1.489186764	-83.61813354	27.31980324	89.39671326	1.0
[right_finger7]
1	1.201135993	-3.376283169	-11.27149582	-196.1199493	10.46628952	99.46619415	1.0
2	1.201135993	-3.376283169	-11.27149582	-196.0504303	10.52152157	99.73905945	1.0
3	1.201135993	-3.376283169	-11.27149582	-195.8713226	10.66378117	100.4418869	1.0
4	1.201135993	-3.376283169	-11.27149582	-195.6269379	10.8579092	101.4009628	1.0
[right_finger8]
1	6.853637218	-4.493112087	5.936321735	34.23339462	-5.395366192	93.21373749	1.0
2	6.853637218	-4.493112087	5.936321735	34.22016144	-5.261905193	93.01501465	1.0
3	6.853637218	-4.493112087	5.936321735	34.18606186	-4.918158531	92.50319672	1.0
4	6.853637218	-4.493112087	5.936321735	34.13953781	-4.449077129	91.80474854	1.0
[Center_pelvis]
1	-5.616972446	-0.3766000271	2.04698658	-26.15167236	-2.566411018	-5.210600376	1.0
2	-5.616972446	-0.3766000271	2.04698658	-26.0798912	-3.631109715	-7.388026714	1.0
3	-5.616972446	-0.3766000271	2.04698658	-25.95761871	-4.300046444	-8.763145447	1.0
4	-5.616972446	-0.3766000271	2.04698658	-25.90996552	-4.482814312	-9.140162468	1.0
[left_pelvs]
1	11.08986378	-0.01586683653	-0.09214995801	0	0	8.967700005	1.0
2	11.08986378	-0.01586683653	-0.09214995801	-1.965276837	0.1205603555	10.00557041	1.0
3	11.08986378	-0.01586683653	-0.09214995801	-5.312961102	0.3259247839	11.77349663	1.0
4	11.08986378	-0.01586683653	-0.09214995801	-6.617650509	0.4059612751	12.46250916	1.0
[left_leg]
1	8.450808053e-008	-5.682914734	0.3641465604	0	-21.79014206	0	1.0
2	8.450808053e-008	-5.682914734	0.3641465604	0	-23.63808441	0	1.0
3	8.450808053e-008	-5.682914734	0.3641465604	0	-26.78589821	0	1.0
4	8.450808053e-008	-5.682914734	0.3641465604	0	-28.0126915	0	1.0
[left_knee]
1	-10.69747543	0.03457061574	-6.811455844e-009	0	-48.04953384	0	1.0
2	-10.69747543	0.03457061574	-6.811455844e-009	0	-52.91587067	0	1.0
3	-10.69747543	0.03457061574	-6.811455844e-009	0	-61.20527267	0	1.0
4	-10.69747543	0.03457061574	-6.811455844e-009	0	-64.4358902	0	1.0
[left_foot]
1	-14.54718971	-0.01193539705	1.933258442e-009	-29.06215096	0	0	1.0
2	-14.54718971	-0.01193539705	1.933258442e-009	-29.06215096	0	0	1.0
3	-14.54718971	-0.01193539705	1.933258442e-009	-29.06215096	0	0	1.0
4	-14.54718971	-0.01193539705	1.933258442e-009	-29.06215096	0	0	1.0
[right_pelvis]
1	-10.5868988	0.4465443194	0.2088862956	0	0	0	1.0
2	-10.5868988	0.4465443194	0.2088862956	-11.14971828	0	0	1.0
3	-10.5868988	0.4465443194	0.2088862956	-30.14232635	0	0	1.0
4	-10.5868988	0.4465443194	0.2088862956	-37.54429626	0	0	1.0
[right_leg]
1	0.09169664979	-5.593489647	0.06310817599	2.178601027	-23.92585754	-5.358821392	1.0
2	0.09169664979	-5.593489647	0.06310817599	7.029793262	-21.39827728	-10.17432117	1.0
3	0.09169664979	-5.593489647	0.06310817599	15.29339123	-17.09275818	-18.37712097	1.0
4	0.09169664979	-5.593489647	0.06310817599	18.51395607	-15.41477203	-21.57398987	1.0
[right_knee]
1	10.69750977	-0.03459574655	-4.718447855e-015	-4.999094818e-017	-6.225234509	-6.54753685	1.0
2	10.69750977	-0.03459574655	-4.718447855e-015	-3.514488591e-017	-13.02330685	-6.54753685	1.0
3	10.69750977	-0.03459574655	-4.718447855e-015	-9.85586527e-018	-26.18168831	-6.54753685	1.0
4	10.69750977	-0.03459574655	-4.718447855e-015	0	-34.68438721	-6.54753685	1.0
[right_foot]
1	14.54718685	0.01191107463	1.774880243e-010	17.02812004	0	0	1.0
2	14.54718685	0.01191107463	1.774880243e-010	5.14465189	0	0	1.0
3	14.54718685	0.01191107463	1.774880243e-010	-17.54761887	0	0	1.0
4	14.54718685	0.01191107463	1.774880243e-010	-31.62877655	0	0	1.0
[EndOfFile]
